<?xml version="1.0" encoding="UTF-8" standalone="no"?>
<!DOCTYPE svg PUBLIC "-//W3C//DTD SVG 1.1//EN" "http://www.w3.org/Graphics/SVG/1.1/DTD/svg11.dtd">
<!-- Generated by graphviz version 2.40.1 (20161225.0304)
 -->
<!-- Title: probabilistic_graph Pages: 1 -->
<svg width="494pt" height="99pt" viewBox="0.00 0.00 494.00 99.00" xmlns="http://www.w3.org/2000/svg" xmlns:xlink="http://www.w3.org/1999/xlink">
<g id="graph0" class="graph" transform="scale(1 1) rotate(0) translate(4 95)">
<title>probabilistic_graph</title>
<polygon fill="#ffffff" stroke="transparent" points="-4,4 -4,-95 490,-95 490,4 -4,4"/>
<!-- 1 -->
<g id="node1" class="node">
<title>1</title>
<ellipse fill="none" stroke="#000000" cx="27" cy="-36" rx="27" ry="18"/>
<text text-anchor="middle" x="27" y="-32.3" font-family="Times,serif" font-size="14.00" fill="#000000">1</text>
</g>
<!-- 3 -->
<g id="node2" class="node">
<title>3</title>
<ellipse fill="none" stroke="#000000" cx="135" cy="-71" rx="27" ry="18"/>
<text text-anchor="middle" x="135" y="-67.3" font-family="Times,serif" font-size="14.00" fill="#000000">3</text>
</g>
<!-- 1&#45;&gt;3 -->
<g id="edge1" class="edge">
<title>1-&gt;3</title>
<path fill="none" stroke="#000000" d="M51.5069,-43.942C66.1439,-48.6855 84.9511,-54.7805 101.009,-59.9844"/>
<polygon fill="#000000" stroke="#000000" points="99.9981,-63.336 110.5901,-63.0894 102.1562,-56.6769 99.9981,-63.336"/>
<text text-anchor="middle" x="81" y="-58.8" font-family="Times,serif" font-size="14.00" fill="#000000">0.1</text>
</g>
<!-- 2 -->
<g id="node3" class="node">
<title>2</title>
<ellipse fill="none" stroke="#000000" cx="243" cy="-19" rx="27" ry="18"/>
<text text-anchor="middle" x="243" y="-15.3" font-family="Times,serif" font-size="14.00" fill="#000000">2</text>
</g>
<!-- 1&#45;&gt;2 -->
<g id="edge2" class="edge">
<title>1-&gt;2</title>
<path fill="none" stroke="#000000" d="M53.9931,-33.5838C69.7408,-32.1951 89.9908,-30.4451 108,-29 141.0898,-26.3447 178.7634,-23.5752 205.8888,-21.6259"/>
<polygon fill="#000000" stroke="#000000" points="206.3734,-25.1003 216.098,-20.8952 205.8736,-18.1181 206.3734,-25.1003"/>
<text text-anchor="middle" x="135" y="-32.8" font-family="Times,serif" font-size="14.00" fill="#000000">0.6</text>
</g>
<!-- 4 -->
<g id="node6" class="node">
<title>4</title>
<ellipse fill="none" stroke="#000000" cx="243" cy="-73" rx="27" ry="18"/>
<text text-anchor="middle" x="243" y="-69.3" font-family="Times,serif" font-size="14.00" fill="#000000">4</text>
</g>
<!-- 3&#45;&gt;4 -->
<g id="edge5" class="edge">
<title>3-&gt;4</title>
<path fill="none" stroke="#000000" d="M162.253,-71.5047C175.4273,-71.7487 191.4432,-72.0452 205.7267,-72.3098"/>
<polygon fill="#000000" stroke="#000000" points="205.6926,-75.8096 215.7558,-72.4955 205.8223,-68.8108 205.6926,-75.8096"/>
<text text-anchor="middle" x="189" y="-75.8" font-family="Times,serif" font-size="14.00" fill="#000000">0.3</text>
</g>
<!-- 5 -->
<g id="node4" class="node">
<title>5</title>
<ellipse fill="none" stroke="#000000" cx="351" cy="-53" rx="27" ry="18"/>
<text text-anchor="middle" x="351" y="-49.3" font-family="Times,serif" font-size="14.00" fill="#000000">5</text>
</g>
<!-- 2&#45;&gt;5 -->
<g id="edge3" class="edge">
<title>2-&gt;5</title>
<path fill="none" stroke="#000000" d="M267.5069,-26.7151C282.0408,-31.2906 300.6864,-37.1605 316.6693,-42.1922"/>
<polygon fill="#000000" stroke="#000000" points="315.6267,-45.5333 326.2163,-45.1977 317.7288,-38.8563 315.6267,-45.5333"/>
<text text-anchor="middle" x="297" y="-41.8" font-family="Times,serif" font-size="14.00" fill="#000000">0.4</text>
</g>
<!-- 6 -->
<g id="node5" class="node">
<title>6</title>
<ellipse fill="none" stroke="#000000" cx="459" cy="-18" rx="27" ry="18"/>
<text text-anchor="middle" x="459" y="-14.3" font-family="Times,serif" font-size="14.00" fill="#000000">6</text>
</g>
<!-- 2&#45;&gt;6 -->
<g id="edge4" class="edge">
<title>2-&gt;6</title>
<path fill="none" stroke="#000000" d="M269.5828,-15.7091C285.3678,-13.9213 305.7932,-11.8969 324,-11 347.9709,-9.8191 354.0223,-9.9659 378,-11 392.3838,-11.6204 408.1645,-12.8576 421.9454,-14.1218"/>
<polygon fill="#000000" stroke="#000000" points="421.7507,-17.619 432.0377,-15.0839 422.4151,-10.6506 421.7507,-17.619"/>
<text text-anchor="middle" x="351" y="-14.8" font-family="Times,serif" font-size="14.00" fill="#000000">0.3</text>
</g>
<!-- 5&#45;&gt;6 -->
<g id="edge7" class="edge">
<title>5-&gt;6</title>
<path fill="none" stroke="#000000" d="M375.5069,-45.058C390.1439,-40.3145 408.9511,-34.2195 425.009,-29.0156"/>
<polygon fill="#000000" stroke="#000000" points="426.1562,-32.3231 434.5901,-25.9106 423.9981,-25.664 426.1562,-32.3231"/>
<text text-anchor="middle" x="405" y="-40.8" font-family="Times,serif" font-size="14.00" fill="#000000">0.2</text>
</g>
<!-- 4&#45;&gt;5 -->
<g id="edge6" class="edge">
<title>4-&gt;5</title>
<path fill="none" stroke="#000000" d="M269.1438,-68.1586C282.8388,-65.6224 299.8256,-62.4767 314.7691,-59.7094"/>
<polygon fill="#000000" stroke="#000000" points="315.5272,-63.1286 324.7226,-57.8662 314.2525,-56.2457 315.5272,-63.1286"/>
<text text-anchor="middle" x="297" y="-67.8" font-family="Times,serif" font-size="14.00" fill="#000000">0.8</text>
</g>
</g>
</svg>